# xmcd
#
# Track frame offsets:
#	150
#	21222
#	39675
#	55102
#	76610
#	99067
#	121967
#	143067
#	166952
#	191322
#	210517
#	232247
#	257615
#	281767
#	305192
#	333030
#
# Disc length: 4658 seconds
#
# Revision: 1
# Processed by: cddbd v1.5PL3 Copyright (c) Steve Scherf et al.
# Submitted via: CDex 1.50Beta5
#
DISCID=d2123010
DTITLE=笠原弘子 - hiroko kasahara super best〜Warner 30th Anniversary Disc 1
DYEAR=2000
DGENRE=Pop
TTITLE0=スローガラスの輝き
TTITLE1=約束(ぷろみす)
TTITLE2=いつかきみと…
TTITLE3=AIR MAIL
TTITLE4=Distance
TTITLE5=水色の自転車
TTITLE6=恋にNO RETURN!!
TTITLE7=YOU and ME
TTITLE8=ヒ・ロ・イ・ン
TTITLE9=ひまわり
TTITLE10=さよならがくれたのは
TTITLE11=ミリオンス・スター 〜1,000,000分の1の星のあなた
TTITLE12=アヤシイ
TTITLE13=そっと夜に泣こう
TTITLE14=Nostalgia
TTITLE15=ダマスカナ森の妖精
EXTD=
EXTT0=
EXTT1=
EXTT2=
EXTT3=
EXTT4=
EXTT5=
EXTT6=
EXTT7=
EXTT8=
EXTT9=
EXTT10=
EXTT11=
EXTT12=
EXTT13=
EXTT14=
EXTT15=
PLAYORDER=
